<svg width="549" height="263" viewBox="0 0 549 263" fill="none" xmlns="http://www.w3.org/2000/svg">
<path d="M138.304 62.0423C147.733 62.0423 155.377 54.3985 155.377 44.9694C155.377 35.5402 147.733 27.8964 138.304 27.8964C128.875 27.8964 121.231 35.5402 121.231 44.9694C121.231 54.3985 128.875 62.0423 138.304 62.0423Z" fill="#3E7DBB"/>
<path d="M157.046 95.1588C156.72 98.4576 156.282 101.876 155.712 105.403C153.949 116.264 151.263 125.946 148.295 134.332C152.426 141.355 156.578 148.973 160.632 157.184C163.652 163.301 166.372 169.255 168.821 174.999C164.506 172.738 159.658 170.494 154.283 168.444C152.507 167.766 138.78 162.606 124.796 160.868C100.473 157.844 78.094 165.514 69.3387 168.903C95.8919 167.166 115.466 172.592 126.834 176.813C152.915 186.495 172.313 202.616 179.052 208.385C195.516 222.486 202.028 233.025 205.361 231.232C206.836 230.439 209.886 226.016 192.56 178.684C185.238 158.676 173.823 129.772 157.046 95.1545V95.1588Z" fill="url(#paint0_linear_3996_535)"/>
<path d="M55.9807 226.183C69.5748 209.547 79.5526 194.662 86.5448 183.286C96.6814 166.796 101.001 156.951 102.468 153.511C108.409 139.574 111.528 127.061 112.562 122.801C117.529 102.352 119.065 93.7341 119.065 93.7341C120.875 83.5718 121.364 78.1196 126.164 74.4047C129.42 71.8824 134.967 69.922 140.252 71.728C144.022 73.0149 146.15 75.7045 146.802 76.5539C151.058 82.0833 150.367 89.2428 149.839 93.3909C147.034 115.401 139.454 132.59 139.454 132.59C132.813 147.66 125.148 159.984 117.984 169.773C115.076 173.75 107.95 183.183 97.1575 193.967C88.0119 203.108 74.4908 214.965 55.985 226.183H55.9807Z" fill="#3E7DBB"/>
<path d="M187.157 117.648V60.2015H197.662V117.648H187.157ZM206.595 117.648V76.943H217.018V81.7028C218.44 79.7879 220.328 78.3655 222.68 77.4354C225.088 76.4506 227.495 75.9582 229.902 75.9582C234.607 75.9582 238.464 77.4901 241.473 80.5539C244.482 83.563 245.987 87.9398 245.987 93.6844V117.648H235.565V95.0796C235.565 92.0158 234.771 89.5538 233.185 87.6936C231.653 85.7788 229.382 84.8213 226.373 84.8213C223.364 84.8213 221.039 85.7788 219.398 87.6936C217.811 89.5538 217.018 92.0158 217.018 95.0796V117.648H206.595ZM269.337 118.632C266.273 118.632 263.401 118.085 260.72 116.991C258.039 115.842 255.823 114.228 254.072 112.149C252.376 110.07 251.446 107.636 251.282 104.845H261.787C262.06 106.596 262.908 107.964 264.331 108.949C265.808 109.934 267.449 110.426 269.255 110.426C270.787 110.426 272.209 110.098 273.522 109.441C274.89 108.73 275.574 107.636 275.574 106.158C275.574 105.01 275.081 104.107 274.097 103.45C273.112 102.794 271.963 102.274 270.65 101.891C269.337 101.508 268.133 101.18 267.039 100.906C264.303 100.25 261.814 99.4838 259.571 98.6084C257.328 97.6783 255.55 96.42 254.237 94.8334C252.924 93.1921 252.267 91.031 252.267 88.3502C252.267 85.7241 253.006 83.4809 254.483 81.6208C256.015 79.7606 258.012 78.3655 260.474 77.4354C262.99 76.4506 265.698 75.9582 268.598 75.9582C273.139 75.9582 276.969 77.1071 280.087 79.405C283.206 81.7028 284.902 85.0949 285.175 89.5812H275.245C275.081 87.8304 274.343 86.5174 273.03 85.642C271.771 84.7119 270.185 84.2469 268.27 84.2469C266.738 84.2469 265.37 84.5204 264.167 85.0675C262.963 85.6146 262.361 86.6541 262.361 88.186C262.361 89.2802 262.853 90.183 263.838 90.8942C264.823 91.5507 265.999 92.0978 267.367 92.5355C268.735 92.9185 269.939 93.2468 270.978 93.5203C273.823 94.2316 276.312 95.0522 278.446 95.9823C280.634 96.9124 282.358 98.1707 283.616 99.7573C284.875 101.344 285.531 103.478 285.586 106.158C285.586 108.839 284.82 111.11 283.288 112.97C281.811 114.83 279.841 116.253 277.379 117.237C274.917 118.167 272.236 118.632 269.337 118.632ZM297.209 71.6908C295.349 71.6908 293.735 71.0342 292.367 69.7212C291.054 68.3534 290.398 66.7395 290.398 64.8793C290.398 62.9644 291.054 61.3505 292.367 60.0374C293.735 58.7244 295.349 58.0678 297.209 58.0678C299.124 58.0678 300.738 58.7244 302.051 60.0374C303.364 61.3505 304.02 62.9644 304.02 64.8793C304.02 66.7395 303.364 68.3534 302.051 69.7212C300.738 71.0342 299.124 71.6908 297.209 71.6908ZM291.957 117.648V76.943H302.461V117.648H291.957ZM327.702 118.632C323.762 118.632 320.37 117.675 317.525 115.76C314.735 113.791 312.574 111.192 311.042 107.964C309.565 104.681 308.826 101.07 308.826 97.1312C308.826 93.1921 309.592 89.6359 311.124 86.4626C312.656 83.2347 314.845 80.6907 317.69 78.8305C320.535 76.9156 323.872 75.9582 327.702 75.9582C330.328 75.9582 332.817 76.5053 335.17 77.5995C337.577 78.6937 339.601 80.2803 341.242 82.3593V60.2015H351.829V117.648H341.242V111.821C339.875 114.064 337.96 115.76 335.498 116.909C333.036 118.058 330.437 118.632 327.702 118.632ZM330.41 109.441C332.598 109.441 334.486 108.921 336.072 107.882C337.714 106.842 338.999 105.42 339.929 103.614C340.86 101.754 341.325 99.6479 341.325 97.2954C341.325 94.3957 340.75 92.0705 339.601 90.3197C338.452 88.5143 337.03 87.2012 335.334 86.3806C333.638 85.5599 331.969 85.1496 330.328 85.1496C328.194 85.1496 326.306 85.6693 324.665 86.7088C323.079 87.7483 321.82 89.1708 320.89 90.9763C319.96 92.727 319.495 94.7787 319.495 97.1312C319.495 99.4291 319.96 101.508 320.89 103.368C321.82 105.228 323.106 106.706 324.747 107.8C326.389 108.894 328.276 109.441 330.41 109.441ZM378.636 118.632C374.369 118.632 370.676 117.702 367.557 115.842C364.494 113.982 362.114 111.438 360.418 108.21C358.722 104.982 357.874 101.344 357.874 97.2954C357.874 92.9732 358.749 89.2255 360.5 86.0523C362.251 82.8791 364.685 80.4171 367.804 78.6664C370.922 76.8609 374.533 75.9582 378.636 75.9582C382.685 75.9582 386.214 76.8336 389.223 78.5843C392.287 80.3351 394.667 82.7423 396.363 85.8061C398.113 88.8699 398.989 92.3987 398.989 96.3926C398.989 97.1039 398.961 97.8151 398.907 98.5263C398.852 99.1829 398.77 99.812 398.66 100.414H368.46C368.624 102.329 369.117 104.025 369.937 105.502C370.813 106.924 371.962 108.046 373.384 108.867C374.861 109.633 376.53 110.016 378.39 110.016C380.305 110.016 381.946 109.605 383.314 108.785C384.737 107.964 385.858 106.706 386.679 105.01H397.922C397.156 107.417 395.925 109.66 394.229 111.739C392.533 113.818 390.372 115.487 387.746 116.745C385.174 118.003 382.138 118.632 378.636 118.632ZM368.542 93.4383H388.156C388.101 90.7027 387.089 88.5416 385.12 86.955C383.205 85.3684 380.934 84.5751 378.308 84.5751C376.065 84.5751 373.986 85.2864 372.071 86.7088C370.156 88.0766 368.98 90.3197 368.542 93.4383Z" fill="#3E7DBB"/>
<path d="M213.394 199.713L234.403 142.267H246.221L267.229 199.713H256.068L251.555 186.665H228.987L224.391 199.713H213.394ZM231.941 178.212H248.6L240.23 154.331L231.941 178.212ZM284.505 199.713C280.128 199.713 276.818 198.647 274.575 196.513C272.387 194.379 271.292 191.179 271.292 186.911V167.79H266.04V159.009H271.292V149.079H281.797V159.009H291.07V167.79H281.797V186.993C281.797 188.525 282.207 189.565 283.028 190.112C283.848 190.659 284.915 190.932 286.228 190.932H291.07V199.713H284.505ZM297.273 199.713V142.267H307.696V163.768C309.118 161.854 311.006 160.431 313.358 159.501C315.765 158.516 318.173 158.024 320.58 158.024C325.285 158.024 329.142 159.556 332.151 162.62C335.16 165.629 336.665 170.006 336.665 175.75V199.713H326.243V177.145C326.243 174.081 325.449 171.619 323.863 169.759C322.331 167.844 320.06 166.887 317.051 166.887C314.042 166.887 311.717 167.844 310.076 169.759C308.489 171.619 307.696 174.081 307.696 177.145V199.713H297.273ZM343.355 199.713V142.267H353.86V199.713H343.355ZM380.356 200.698C376.089 200.698 372.396 199.768 369.277 197.908C366.213 196.048 363.833 193.504 362.137 190.276C360.441 187.048 359.593 183.41 359.593 179.361C359.593 175.039 360.469 171.291 362.219 168.118C363.97 164.945 366.405 162.483 369.523 160.732C372.642 158.927 376.253 158.024 380.356 158.024C384.405 158.024 387.933 158.899 390.943 160.65C394.006 162.401 396.386 164.808 398.082 167.872C399.833 170.936 400.708 174.464 400.708 178.458C400.708 179.17 400.681 179.881 400.626 180.592C400.572 181.249 400.49 181.878 400.38 182.48H370.18C370.344 184.394 370.836 186.09 371.657 187.568C372.532 188.99 373.681 190.112 375.104 190.932C376.581 191.698 378.25 192.081 380.11 192.081C382.025 192.081 383.666 191.671 385.034 190.85C386.456 190.03 387.578 188.771 388.398 187.075H399.642C398.876 189.482 397.645 191.726 395.949 193.805C394.253 195.884 392.091 197.552 389.465 198.811C386.894 200.069 383.858 200.698 380.356 200.698ZM370.262 175.504H389.876C389.821 172.768 388.809 170.607 386.839 169.021C384.924 167.434 382.654 166.641 380.028 166.641C377.785 166.641 375.706 167.352 373.791 168.775C371.876 170.142 370.7 172.385 370.262 175.504ZM421.549 199.713C417.172 199.713 413.862 198.647 411.619 196.513C409.43 194.379 408.336 191.179 408.336 186.911V167.79H403.084V159.009H408.336V149.079H418.84V159.009H428.114V167.79H418.84V186.993C418.84 188.525 419.251 189.565 420.071 190.112C420.892 190.659 421.959 190.932 423.272 190.932H428.114V199.713H421.549ZM439.979 153.756C438.119 153.756 436.505 153.1 435.138 151.787C433.825 150.419 433.168 148.805 433.168 146.945C433.168 145.03 433.825 143.416 435.138 142.103C436.505 140.79 438.119 140.134 439.979 140.134C441.894 140.134 443.508 140.79 444.821 142.103C446.134 143.416 446.791 145.03 446.791 146.945C446.791 148.805 446.134 150.419 444.821 151.787C443.508 153.1 441.894 153.756 439.979 153.756ZM434.727 199.713V159.009H445.232V199.713H434.727ZM472.031 200.698C467.928 200.698 464.345 199.795 461.281 197.99C458.217 196.13 455.837 193.613 454.141 190.44C452.445 187.212 451.597 183.519 451.597 179.361C451.597 175.258 452.418 171.592 454.059 168.364C455.755 165.136 458.135 162.62 461.199 160.814C464.262 158.954 467.873 158.024 472.031 158.024C476.955 158.024 481.113 159.255 484.505 161.717C487.952 164.179 490.277 167.817 491.481 172.632H480.238C479.746 171.045 478.788 169.705 477.366 168.61C475.998 167.461 474.192 166.887 471.949 166.887C469.706 166.887 467.873 167.461 466.451 168.61C465.028 169.759 463.962 171.291 463.25 173.206C462.594 175.066 462.266 177.118 462.266 179.361C462.266 181.604 462.594 183.683 463.25 185.598C463.962 187.458 465.028 188.963 466.451 190.112C467.873 191.206 469.706 191.753 471.949 191.753C474.083 191.753 475.834 191.288 477.202 190.358C478.569 189.373 479.581 187.951 480.238 186.09H491.481C490.77 189.154 489.484 191.78 487.624 193.969C485.818 196.157 483.575 197.826 480.894 198.975C478.268 200.124 475.314 200.698 472.031 200.698ZM514.209 200.698C511.145 200.698 508.273 200.151 505.592 199.057C502.911 197.908 500.695 196.294 498.945 194.215C497.248 192.136 496.318 189.701 496.154 186.911H506.659C506.932 188.662 507.78 190.03 509.203 191.014C510.68 191.999 512.321 192.492 514.127 192.492C515.659 192.492 517.081 192.163 518.394 191.507C519.762 190.796 520.446 189.701 520.446 188.224C520.446 187.075 519.953 186.172 518.969 185.516C517.984 184.859 516.835 184.34 515.522 183.957C514.209 183.574 513.005 183.245 511.911 182.972C509.175 182.315 506.686 181.549 504.443 180.674C502.2 179.744 500.422 178.486 499.109 176.899C497.796 175.258 497.139 173.097 497.139 170.416C497.139 167.79 497.878 165.547 499.355 163.686C500.887 161.826 502.884 160.431 505.346 159.501C507.862 158.516 510.571 158.024 513.47 158.024C518.011 158.024 521.841 159.173 524.959 161.471C528.078 163.768 529.774 167.161 530.047 171.647H520.118C519.953 169.896 519.215 168.583 517.902 167.708C516.643 166.778 515.057 166.313 513.142 166.313C511.61 166.313 510.242 166.586 509.039 167.133C507.835 167.68 507.233 168.72 507.233 170.252C507.233 171.346 507.726 172.249 508.71 172.96C509.695 173.616 510.871 174.164 512.239 174.601C513.607 174.984 514.811 175.312 515.85 175.586C518.695 176.297 521.184 177.118 523.318 178.048C525.507 178.978 527.23 180.236 528.488 181.823C529.747 183.41 530.403 185.543 530.458 188.224C530.458 190.905 529.692 193.175 528.16 195.036C526.683 196.896 524.713 198.318 522.251 199.303C519.789 200.233 517.108 200.698 514.209 200.698Z" fill="#00804D"/>
<defs>
<linearGradient id="paint0_linear_3996_535" x1="72.6287" y1="159.917" x2="206.559" y2="163.249" gradientUnits="userSpaceOnUse">
<stop stop-color="#164779"/>
<stop offset="1" stop-color="#00804D"/>
</linearGradient>
</defs>
</svg>
