<svg width="333" height="333" viewBox="0 0 333 333" fill="none" xmlns="http://www.w3.org/2000/svg">
<g clip-path="url(#clip0_4000_542)">
<path d="M169.429 79.6964C181.389 79.6964 191.085 70.0007 191.085 58.0405C191.085 46.0803 181.389 36.3846 169.429 36.3846C157.469 36.3846 147.773 46.0803 147.773 58.0405C147.773 70.0007 157.469 79.6964 169.429 79.6964Z" fill="#3E7DBB"/>
<path d="M193.202 121.702C192.788 125.886 192.233 130.223 191.509 134.696C189.273 148.473 185.867 160.754 182.102 171.391C187.341 180.298 192.608 189.962 197.75 200.376C201.581 208.135 205.031 215.688 208.138 222.973C202.664 220.106 196.515 217.26 189.697 214.659C187.445 213.8 170.033 207.254 152.295 205.05C121.443 201.214 93.0567 210.943 81.9512 215.241C115.632 213.038 140.46 219.921 154.879 225.275C187.962 237.556 212.567 258.004 221.115 265.322C241.998 283.207 250.258 296.576 254.486 294.302C256.357 293.295 260.226 287.685 238.249 227.647C228.961 202.27 214.482 165.607 193.202 121.697V121.702Z" fill="url(#paint0_linear_4000_542)"/>
<path d="M65.0076 287.897C82.2507 266.796 94.9069 247.915 103.776 233.485C116.634 212.569 122.113 200.082 123.974 195.718C131.51 178.04 135.465 162.168 136.777 156.765C143.078 130.826 145.026 119.895 145.026 119.895C147.322 107.005 147.942 100.089 154.031 95.3772C158.161 92.1778 165.196 89.6912 171.9 91.9819C176.682 93.6142 179.381 97.0259 180.208 98.1032C185.606 105.117 184.73 114.198 184.061 119.46C180.502 147.379 170.887 169.181 170.887 169.181C162.465 188.296 152.741 203.929 143.654 216.345C139.965 221.389 130.927 233.355 117.237 247.034C105.637 258.629 88.4863 273.668 65.0131 287.897H65.0076Z" fill="#3E7DBB"/>
</g>
<defs>
<linearGradient id="paint0_linear_4000_542" x1="86.1243" y1="203.843" x2="256.005" y2="208.069" gradientUnits="userSpaceOnUse">
<stop stop-color="#164779"/>
<stop offset="1" stop-color="#00804D"/>
</linearGradient>
<clipPath id="clip0_4000_542">
<rect width="333" height="333" fill="white"/>
</clipPath>
</defs>
</svg>
