<?xml version="1.0" encoding="utf-8"?>
<!-- Generator: Adobe Illustrator 24.1.2, SVG Export Plug-In . SVG Version: 6.00 Build 0)  -->
<svg version="1.1" id="Layer_1" xmlns="http://www.w3.org/2000/svg" xmlns:xlink="http://www.w3.org/1999/xlink" x="0px" y="0px"
	 viewBox="0 0 304.06 279.33" style="enable-background:new 0 0 304.06 279.33;" xml:space="preserve">
<style type="text/css">
	.st0{fill:#FFFFFF;stroke:#000000;stroke-miterlimit:10;}
	.st1{fill:#3E7DBA;}
</style>
<g>
	<rect x="97.26" y="78.95" class="st0" width="107.23" height="103.15"/>
	<g>
		<path class="st1" d="M158.41,108.72c0,3.63-3.19,6.59-7.12,6.59c-3.94,0-7.13-2.96-7.13-6.59c0-3.63,3.19-6.57,7.13-6.57
			C155.21,102.15,158.41,105.09,158.41,108.72z"/>
		<path class="st1" d="M196.21,65.98h-90.48c-9.99,0-18.1,8.1-18.1,18.1v90.47c0,2.48,0.5,4.83,1.4,6.98c1.6,3.83,4.54,7.04,8.19,9
			c3.68,1.96,8.12,1.95,10.02,6.26c0.94,2.17,0.94,4.5,0.94,6.82l0.02,2.47c0.02,3.18-0.02,6.35,0.08,9.53
			c0.04,1.43,0.05,2.84,0.61,4.19c0.25,0.59,0.79,1.51,1.56,1.44c0.27-0.02,0.5-0.22,0.7-0.42c2.53-2.43,5.07-4.85,7.6-7.29
			c2.13-2.03,4.26-4.07,6.39-6.11c1.79-1.71,3.58-3.42,5.37-5.13c0.75-0.72,1.49-1.44,2.25-2.15l-0.26,0.3
			c5.59-5.38,12.6-7.82,20.25-7.78c4.96,0.02,9.92,0,14.88,0h28.58c1.17,0,2.32-0.11,3.42-0.33c7.13-1.36,12.79-6.92,14.28-14
			c0.26-1.21,0.4-2.47,0.4-3.76V84.08C214.3,74.08,206.19,65.98,196.21,65.98z M181.28,169.78l-7.4-16.55h-8.96
			c-8.41,0-16.8-0.16-25.19-0.16c-6.62-0.11-6.75,5.61-5.85,10.79c0.18,1.04,0.59,4.67,1.57,5.34
			c-17.02-11.64-0.46-21.48,7.14-25.07c3.52-1.88,7.15-3.51,10.81-5.07c3.22-1.37,6.48-2.71,9.7-4.16c2.7-1.22,6.78-2.48,8.4-5.16
			c1.85-3.08-2.49-6.2-4.8-7.4c-2.91-1.51-6.21-2.28-9.42-2.9c-4.89-0.92-9.93-1.02-14.89-0.68c-1.83,0.12-3.66,0.3-5.45,0.6
			c4.08,0.34,20.22,2.27,16.74,9.36c-1.45,2.97-4.89,4.84-7.58,6.51c-3.12,1.91-6.27,3.69-9.38,5.6
			c-6.13,3.78-13.07,8.11-16.74,14.52c-2.83,4.93-1.93,9.76,0.76,13.93l-0.23,0.49h-17.92l39.34-87.71h18.06l39.36,87.71H181.28z"/>
	</g>
</g>
</svg>
